<?xml version="1.0" encoding="UTF-8" standalone="no"?>
<!-- Created with Inkscape (http://www.inkscape.org/) -->

<svg
   width="297.0mm"
   height="420.0mm"
   viewBox="0 0 297.0 420.0"
   version="1.1"
   id="SVGRoot"
   sodipodi:docname="face_2.svg"
   inkscape:version="1.2.2 (b0a8486541, 2022-12-01)"
   xmlns:inkscape="http://www.inkscape.org/namespaces/inkscape"
   xmlns:sodipodi="http://sodipodi.sourceforge.net/DTD/sodipodi-0.dtd"
   xmlns="http://www.w3.org/2000/svg"
   xmlns:svg="http://www.w3.org/2000/svg">
  <sodipodi:namedview
     id="namedview3202"
     pagecolor="#ffffff"
     bordercolor="#000000"
     borderopacity="0.25"
     inkscape:showpageshadow="2"
     inkscape:pageopacity="0.0"
     inkscape:pagecheckerboard="0"
     inkscape:deskcolor="#d1d1d1"
     inkscape:document-units="mm"
     showgrid="false"
     inkscape:zoom="0.33190922"
     inkscape:cx="567.92637"
     inkscape:cy="563.40707"
     inkscape:window-width="1916"
     inkscape:window-height="1173"
     inkscape:window-x="0"
     inkscape:window-y="0"
     inkscape:window-maximized="0"
     inkscape:current-layer="layer1" />
  <defs
     id="defs3197" />
  <g
     inkscape:label="Layer 1"
     inkscape:groupmode="layer"
     id="layer1">
    <g
       id="g24873"
       transform="rotate(-90,165.72807,160.58927)">
      <path
         id="Part__Part2DObjectPython001_w0000"
         d="m 0.445,220.445 h 44.5 v -220 h -44.5 v 220"
         stroke="#f1f3f5"
         stroke-width="0.7 px"
         style="fill:none;fill-opacity:1;fill-rule:evenodd;stroke:#ff0000;stroke-width:0.7;stroke-linecap:square;stroke-miterlimit:4;stroke-dasharray:none;stroke-opacity:1" />
      <circle
         cx="7.4450002"
         cy="-11.445007"
         r="1.5"
         stroke="#f1f3f5"
         stroke-width="0.7 px"
         style="fill:none;stroke:#0000ff;stroke-width:0.7;stroke-linecap:square;stroke-miterlimit:4;stroke-dasharray:none;stroke-opacity:1"
         id="circle9750"
         transform="scale(1,-1)" />
      <circle
         cx="37.945"
         cy="-11.445007"
         r="1.5"
         stroke="#f1f3f5"
         stroke-width="0.7 px"
         style="fill:none;stroke:#0000ff;stroke-width:0.7;stroke-linecap:square;stroke-miterlimit:4;stroke-dasharray:none;stroke-opacity:1"
         id="circle9752"
         transform="scale(1,-1)" />
      <circle
         cx="7.4450002"
         cy="-200.44499"
         r="1.5"
         stroke="#f1f3f5"
         stroke-width="0.7 px"
         style="fill:none;stroke:#0000ff;stroke-width:0.7;stroke-linecap:square;stroke-miterlimit:4;stroke-dasharray:none;stroke-opacity:1"
         id="circle9754"
         transform="scale(1,-1)" />
      <circle
         cx="37.945"
         cy="-200.44499"
         r="1.4633931"
         stroke="#f1f3f5"
         stroke-width="0.7 px"
         style="fill:none;stroke:#0000ff;stroke-width:0.7;stroke-linecap:square;stroke-miterlimit:4;stroke-dasharray:none;stroke-opacity:1"
         id="circle9756"
         transform="scale(1,-1)" />
    </g>
    <g
       id="g32228"
       transform="translate(2.6770668,257.11322)">
      <g
         id="g54688"
         transform="translate(-0.16815003,-30.422701)">
        <circle
           cx="33.540001"
           cy="-8.79"
           r="1.75"
           stroke="#f1f3f5"
           stroke-width="0.7 px"
           style="fill:none;stroke:#0000ff;stroke-width:0.7;stroke-linecap:square;stroke-miterlimit:4;stroke-dasharray:none;stroke-opacity:1"
           id="circle20849"
           transform="scale(1,-1)" />
        <circle
           cx="65.540001"
           cy="-8.79"
           r="1.75"
           stroke="#f1f3f5"
           stroke-width="0.7 px"
           style="fill:none;stroke:#0000ff;stroke-width:0.7;stroke-linecap:square;stroke-miterlimit:4;stroke-dasharray:none;stroke-opacity:1"
           id="circle20851"
           transform="scale(1,-1)" />
        <circle
           cx="33.540001"
           cy="-40.790001"
           r="1.75"
           stroke="#f1f3f5"
           stroke-width="0.7 px"
           style="fill:none;stroke:#0000ff;stroke-width:0.7;stroke-linecap:square;stroke-miterlimit:4;stroke-dasharray:none;stroke-opacity:1"
           id="circle20853"
           transform="scale(1,-1)" />
        <circle
           cx="65.540001"
           cy="-40.790001"
           r="1.75"
           stroke="#f1f3f5"
           stroke-width="0.7 px"
           style="fill:none;stroke:#0000ff;stroke-width:0.7;stroke-linecap:square;stroke-miterlimit:4;stroke-dasharray:none;stroke-opacity:1"
           id="circle20855"
           transform="scale(1,-1)" />
        <path
           id="Part__Part2DObjectPython006_w0004"
           d="m 68.241812,21.437059 a 19,19 0 0 0 -37.403612,10e-7 2,2 0 0 0 3.9372,0.70588 15,15 0 0 1 29.5292,0 2,2 0 1 0 3.9372,-0.70588"
           stroke="#f1f3f5"
           stroke-width="0.7 px"
           style="fill:none;fill-opacity:1;fill-rule:evenodd;stroke:#0000ff;stroke-width:0.7;stroke-linecap:square;stroke-miterlimit:4;stroke-dasharray:none;stroke-opacity:1" />
        <path
           id="Part__Part2DObjectPython006_w0005"
           d="m 62.047188,21.244545 a 13,13 0 0 0 -25.014388,5e-6 2.0000153,2.0000153 0 1 0 3.8484,1.0909 9,9 0 0 1 17.3176,0 2.0000153,2.0000153 0 1 0 3.8484,-1.0909"
           stroke="#f1f3f5"
           stroke-width="0.7 px"
           style="fill:none;fill-opacity:1;fill-rule:evenodd;stroke:#0000ff;stroke-width:0.7;stroke-linecap:square;stroke-miterlimit:4;stroke-dasharray:none;stroke-opacity:1" />
        <path
           id="Part__Part2DObjectPython006_w0006"
           d="m 55.14,20.59 a 7,7 0 0 0 -11.2,0 2,2 0 1 0 3.2,2.4 3,3 0 0 1 4.8,0 2,2 0 1 0 3.2,-2.4"
           stroke="#f1f3f5"
           stroke-width="0.7 px"
           style="fill:none;fill-opacity:1;fill-rule:evenodd;stroke:#0000ff;stroke-width:0.7;stroke-linecap:square;stroke-miterlimit:4;stroke-dasharray:none;stroke-opacity:1" />
        <path
           id="Part__Part2DObjectPython006_w0007"
           d="m 43.94,28.99 a 7,7 0 0 0 11.2,0 2,2 0 1 0 -3.2,-2.4 3,3 0 0 1 -4.8,0 2,2 0 1 0 -3.2,2.4"
           stroke="#f1f3f5"
           stroke-width="0.7 px"
           style="fill:none;fill-opacity:1;fill-rule:evenodd;stroke:#0000ff;stroke-width:0.7;stroke-linecap:square;stroke-miterlimit:4;stroke-dasharray:none;stroke-opacity:1" />
        <path
           id="Part__Part2DObjectPython006_w0008"
           d="m 37.032812,28.335454 a 13,13 0 0 0 25.014388,-4e-6 2.0000153,2.0000153 0 1 0 -3.8484,-1.0909 9,9 0 0 1 -17.3176,0 2.0000153,2.0000153 0 1 0 -3.8484,1.0909"
           stroke="#f1f3f5"
           stroke-width="0.7 px"
           style="fill:none;fill-opacity:1;fill-rule:evenodd;stroke:#0000ff;stroke-width:0.7;stroke-linecap:square;stroke-miterlimit:4;stroke-dasharray:none;stroke-opacity:1" />
        <path
           id="Part__Part2DObjectPython006_w0009"
           d="m 30.838188,28.142941 a 19,19 0 0 0 37.403612,-1e-6 2,2 0 1 0 -3.9372,-0.70588 15,15 0 0 1 -29.5292,0 2,2 0 1 0 -3.9372,0.70588"
           stroke="#f1f3f5"
           stroke-width="0.7 px"
           style="fill:none;fill-opacity:1;fill-rule:evenodd;stroke:#0000ff;stroke-width:0.7;stroke-linecap:square;stroke-miterlimit:4;stroke-dasharray:none;stroke-opacity:1" />
        <path
           id="Part__Part2DObjectPython006_w0010"
           d="m 256.54,2.54 h -254 v 44.5 h 254 V 2.54"
           stroke="#f1f3f5"
           stroke-width="0.7 px"
           style="fill:none;fill-opacity:1;fill-rule:evenodd;stroke:#ff0000;stroke-width:0.7;stroke-linecap:square;stroke-miterlimit:4;stroke-dasharray:none;stroke-opacity:1" />
        <circle
           cx="11.277503"
           cy="-8.915"
           r="3.25"
           stroke="#f1f3f5"
           stroke-width="0.7 px"
           style="fill:none;stroke:#0000ff;stroke-width:0.7;stroke-linecap:square;stroke-miterlimit:4;stroke-dasharray:none;stroke-opacity:1"
           id="circle20864"
           transform="scale(1,-1)" />
        <circle
           cx="11.277503"
           cy="-40.665001"
           r="3.25"
           stroke="#f1f3f5"
           stroke-width="0.7 px"
           style="fill:none;stroke:#0000ff;stroke-width:0.7;stroke-linecap:square;stroke-miterlimit:4;stroke-dasharray:none;stroke-opacity:1"
           id="circle20866"
           transform="scale(1,-1)" />
        <circle
           cx="247.80249"
           cy="-8.915"
           r="3.25"
           stroke="#f1f3f5"
           stroke-width="0.7 px"
           style="fill:none;stroke:#0000ff;stroke-width:0.7;stroke-linecap:square;stroke-miterlimit:4;stroke-dasharray:none;stroke-opacity:1"
           id="circle20868"
           transform="scale(1,-1)" />
        <circle
           cx="247.80249"
           cy="-40.665001"
           r="3.25"
           stroke="#f1f3f5"
           stroke-width="0.7 px"
           style="fill:none;stroke:#0000ff;stroke-width:0.7;stroke-linecap:square;stroke-miterlimit:4;stroke-dasharray:none;stroke-opacity:1"
           id="circle20870"
           transform="scale(1,-1)" />
        <circle
           cx="193.53999"
           cy="-8.79"
           r="1.75"
           stroke="#f1f3f5"
           stroke-width="0.7 px"
           style="fill:none;stroke:#0000ff;stroke-width:0.7;stroke-linecap:square;stroke-miterlimit:4;stroke-dasharray:none;stroke-opacity:1"
           id="circle20872"
           transform="scale(1,-1)" />
        <circle
           cx="225.53999"
           cy="-8.79"
           r="1.75"
           stroke="#f1f3f5"
           stroke-width="0.7 px"
           style="fill:none;stroke:#0000ff;stroke-width:0.7;stroke-linecap:square;stroke-miterlimit:4;stroke-dasharray:none;stroke-opacity:1"
           id="circle20874"
           transform="scale(1,-1)" />
        <circle
           cx="193.53999"
           cy="-40.790001"
           r="1.75"
           stroke="#f1f3f5"
           stroke-width="0.7 px"
           style="fill:none;stroke:#0000ff;stroke-width:0.7;stroke-linecap:square;stroke-miterlimit:4;stroke-dasharray:none;stroke-opacity:1"
           id="circle20876"
           transform="scale(1,-1)" />
        <circle
           cx="225.53999"
           cy="-40.790001"
           r="1.75"
           stroke="#f1f3f5"
           stroke-width="0.7 px"
           style="fill:none;stroke:#0000ff;stroke-width:0.7;stroke-linecap:square;stroke-miterlimit:4;stroke-dasharray:none;stroke-opacity:1"
           id="circle20878"
           transform="scale(1,-1)" />
        <path
           id="Part__Part2DObjectPython006_w0019"
           d="m 228.24181,21.437059 a 19,19 0 0 0 -37.40361,10e-7 2,2 0 0 0 3.9372,0.70588 15,15 0 0 1 29.5292,0 2,2 0 0 0 3.9372,-0.70588"
           stroke="#f1f3f5"
           stroke-width="0.7 px"
           style="fill:none;fill-opacity:1;fill-rule:evenodd;stroke:#0000ff;stroke-width:0.7;stroke-linecap:square;stroke-miterlimit:4;stroke-dasharray:none;stroke-opacity:1" />
        <path
           id="Part__Part2DObjectPython006_w0020"
           d="m 222.04719,21.244545 a 13,13 0 0 0 -25.01439,5e-6 2.0000153,2.0000153 0 0 0 3.8484,1.0909 9,9 0 0 1 17.3176,0 2.0000153,2.0000153 0 0 0 3.8484,-1.0909"
           stroke="#f1f3f5"
           stroke-width="0.7 px"
           style="fill:none;fill-opacity:1;fill-rule:evenodd;stroke:#0000ff;stroke-width:0.7;stroke-linecap:square;stroke-miterlimit:4;stroke-dasharray:none;stroke-opacity:1" />
        <path
           id="Part__Part2DObjectPython006_w0021"
           d="m 215.14,20.59 a 7,7 0 0 0 -11.2,0 2,2 0 1 0 3.2,2.4 3,3 0 0 1 4.8,0 2,2 0 1 0 3.2,-2.4"
           stroke="#f1f3f5"
           stroke-width="0.7 px"
           style="fill:none;fill-opacity:1;fill-rule:evenodd;stroke:#0000ff;stroke-width:0.7;stroke-linecap:square;stroke-miterlimit:4;stroke-dasharray:none;stroke-opacity:1" />
        <path
           id="Part__Part2DObjectPython006_w0022"
           d="m 203.94,28.99 a 7,7 0 0 0 11.2,0 2,2 0 1 0 -3.2,-2.4 3,3 0 0 1 -4.8,0 2,2 0 1 0 -3.2,2.4"
           stroke="#f1f3f5"
           stroke-width="0.7 px"
           style="fill:none;fill-opacity:1;fill-rule:evenodd;stroke:#0000ff;stroke-width:0.7;stroke-linecap:square;stroke-miterlimit:4;stroke-dasharray:none;stroke-opacity:1" />
        <path
           id="Part__Part2DObjectPython006_w0023"
           d="m 197.03281,28.335454 a 13,13 0 0 0 25.01439,-4e-6 2.0000153,2.0000153 0 0 0 -3.8484,-1.0909 9,9 0 0 1 -17.3176,0 2.0000153,2.0000153 0 0 0 -3.8484,1.0909"
           stroke="#f1f3f5"
           stroke-width="0.7 px"
           style="fill:none;fill-opacity:1;fill-rule:evenodd;stroke:#0000ff;stroke-width:0.7;stroke-linecap:square;stroke-miterlimit:4;stroke-dasharray:none;stroke-opacity:1" />
        <path
           id="Part__Part2DObjectPython006_w0024"
           d="m 190.83819,28.142941 a 19,19 0 0 0 37.40361,-1e-6 2,2 0 0 0 -3.9372,-0.70588 15,15 0 0 1 -29.5292,0 2,2 0 0 0 -3.9372,0.70588"
           stroke="#f1f3f5"
           stroke-width="0.7 px"
           style="fill:none;fill-opacity:1;fill-rule:evenodd;stroke:#0000ff;stroke-width:0.7;stroke-linecap:square;stroke-miterlimit:4;stroke-dasharray:none;stroke-opacity:1" />
      </g>
    </g>
    <g
       id="g17363"
       transform="translate(-1.9831848,-1.0797033)">
      <path
         id="Part__Part2DObjectPython_w0000-3"
         d="m 6.99156,4.77015 v 220 h 250 v -220 h -250"
         stroke="#f1f3f5"
         stroke-width="0.7 px"
         style="fill:none;fill-opacity:1;fill-rule:evenodd;stroke:#ff0000;stroke-width:0.7;stroke-linecap:square;stroke-miterlimit:4;stroke-dasharray:none;stroke-opacity:1" />
      <circle
         cx="17.99156"
         cy="-15.77015"
         r="1.5"
         stroke="#f1f3f5"
         stroke-width="0.7 px"
         style="fill:none;stroke:#0000ff;stroke-width:0.7;stroke-linecap:square;stroke-miterlimit:4;stroke-dasharray:none;stroke-opacity:1"
         id="circle319"
         transform="scale(1,-1)" />
      <circle
         cx="245.99156"
         cy="-15.77015"
         r="1.5"
         stroke="#f1f3f5"
         stroke-width="0.7 px"
         style="fill:none;stroke:#0000ff;stroke-width:0.7;stroke-linecap:square;stroke-miterlimit:4;stroke-dasharray:none;stroke-opacity:1"
         id="circle321"
         transform="scale(1,-1)" />
      <circle
         cx="245.99156"
         cy="-204.77016"
         r="1.5"
         stroke="#f1f3f5"
         stroke-width="0.7 px"
         style="fill:none;stroke:#0000ff;stroke-width:0.7;stroke-linecap:square;stroke-miterlimit:4;stroke-dasharray:none;stroke-opacity:1"
         id="circle323"
         transform="scale(1,-1)" />
      <circle
         cx="17.99156"
         cy="-204.77016"
         r="1.5"
         stroke="#f1f3f5"
         stroke-width="0.7 px"
         style="fill:none;stroke:#0000ff;stroke-width:0.7;stroke-linecap:square;stroke-miterlimit:4;stroke-dasharray:none;stroke-opacity:1"
         id="circle325"
         transform="scale(1,-1)" />
    </g>
  </g>
</svg>
