<?xml version="1.0" encoding="UTF-8" standalone="no"?>
<!-- Created with Inkscape (http://www.inkscape.org/) -->

<svg
   width="297.0mm"
   height="420.0mm"
   viewBox="0 0 297.0 420.0"
   version="1.1"
   id="SVGRoot"
   sodipodi:docname="face_2.svg"
   inkscape:version="1.2.2 (b0a8486541, 2022-12-01)"
   xmlns:inkscape="http://www.inkscape.org/namespaces/inkscape"
   xmlns:sodipodi="http://sodipodi.sourceforge.net/DTD/sodipodi-0.dtd"
   xmlns="http://www.w3.org/2000/svg"
   xmlns:svg="http://www.w3.org/2000/svg">
  <sodipodi:namedview
     id="namedview3202"
     pagecolor="#ffffff"
     bordercolor="#000000"
     borderopacity="0.25"
     inkscape:showpageshadow="2"
     inkscape:pageopacity="0.0"
     inkscape:pagecheckerboard="0"
     inkscape:deskcolor="#d1d1d1"
     inkscape:document-units="mm"
     showgrid="false"
     inkscape:zoom="0.33190922"
     inkscape:cx="578.47143"
     inkscape:cy="638.72887"
     inkscape:window-width="1603"
     inkscape:window-height="1053"
     inkscape:window-x="0"
     inkscape:window-y="0"
     inkscape:window-maximized="0"
     inkscape:current-layer="layer1" />
  <defs
     id="defs3197" />
  <g
     inkscape:label="Layer 1"
     inkscape:groupmode="layer"
     id="layer1">
    <g
       id="g24873"
       transform="rotate(-90,165.72807,160.58927)">
      <path
         id="Part__Part2DObjectPython001_w0000"
         d="m 0.445,220.445 h 44.5 v -220 h -44.5 v 220"
         stroke="#f1f3f5"
         stroke-width="0.7 px"
         style="fill:none;fill-opacity:1;fill-rule:evenodd;stroke:#0000ff;stroke-width:0.7;stroke-linecap:square;stroke-miterlimit:4;stroke-dasharray:none;stroke-opacity:1" />
      <circle
         cx="7.4450002"
         cy="-11.445007"
         r="1.5"
         stroke="#f1f3f5"
         stroke-width="0.7 px"
         style="fill:none;stroke:#ff0000;stroke-width:0.7;stroke-linecap:square;stroke-miterlimit:4;stroke-dasharray:none;stroke-opacity:1"
         id="circle9750"
         transform="scale(1,-1)" />
      <circle
         cx="37.945"
         cy="-11.445007"
         r="1.5"
         stroke="#f1f3f5"
         stroke-width="0.7 px"
         style="fill:none;stroke:#ff0000;stroke-width:0.7;stroke-linecap:square;stroke-miterlimit:4;stroke-dasharray:none;stroke-opacity:1"
         id="circle9752"
         transform="scale(1,-1)" />
      <circle
         cx="7.4450002"
         cy="-200.44499"
         r="1.5"
         stroke="#f1f3f5"
         stroke-width="0.7 px"
         style="fill:none;stroke:#ff0000;stroke-width:0.7;stroke-linecap:square;stroke-miterlimit:4;stroke-dasharray:none;stroke-opacity:1"
         id="circle9754"
         transform="scale(1,-1)" />
      <circle
         cx="37.945"
         cy="-200.44499"
         r="1.4633931"
         stroke="#f1f3f5"
         stroke-width="0.7 px"
         style="fill:none;stroke:#ff0000;stroke-width:0.7;stroke-linecap:square;stroke-miterlimit:4;stroke-dasharray:none;stroke-opacity:1"
         id="circle9756"
         transform="scale(1,-1)" />
    </g>
    <g
       id="g17363"
       transform="translate(-1.9831848,-1.0797033)">
      <path
         id="Part__Part2DObjectPython_w0000-3"
         d="m 6.99156,4.77015 v 220 h 250 v -220 h -250"
         stroke="#f1f3f5"
         stroke-width="0.7 px"
         style="fill:none;fill-opacity:1;fill-rule:evenodd;stroke:#0000ff;stroke-width:0.7;stroke-linecap:square;stroke-miterlimit:4;stroke-dasharray:none;stroke-opacity:1" />
      <circle
         cx="17.99156"
         cy="-15.77015"
         r="1.5"
         stroke="#f1f3f5"
         stroke-width="0.7 px"
         style="fill:none;stroke:#ff0000;stroke-width:0.7;stroke-linecap:square;stroke-miterlimit:4;stroke-dasharray:none;stroke-opacity:1"
         id="circle319"
         transform="scale(1,-1)" />
      <circle
         cx="245.99156"
         cy="-15.77015"
         r="1.5"
         stroke="#f1f3f5"
         stroke-width="0.7 px"
         style="fill:none;stroke:#ff0000;stroke-width:0.7;stroke-linecap:square;stroke-miterlimit:4;stroke-dasharray:none;stroke-opacity:1"
         id="circle321"
         transform="scale(1,-1)" />
      <circle
         cx="245.99156"
         cy="-204.77016"
         r="1.5"
         stroke="#f1f3f5"
         stroke-width="0.7 px"
         style="fill:none;stroke:#ff0000;stroke-width:0.7;stroke-linecap:square;stroke-miterlimit:4;stroke-dasharray:none;stroke-opacity:1"
         id="circle323"
         transform="scale(1,-1)" />
      <circle
         cx="17.99156"
         cy="-204.77016"
         r="1.5"
         stroke="#f1f3f5"
         stroke-width="0.7 px"
         style="fill:none;stroke:#ff0000;stroke-width:0.7;stroke-linecap:square;stroke-miterlimit:4;stroke-dasharray:none;stroke-opacity:1"
         id="circle325"
         transform="scale(1,-1)" />
    </g>
    <g
       id="g29053"
       transform="translate(-279.77052,-10.478238)">
      <circle
         cx="476.46893"
         cy="-245.79091"
         r="1.75"
         stroke="#f1f3f5"
         stroke-width="0.7 px"
         style="fill:none;stroke:#ff0000;stroke-width:0.7;stroke-linecap:square;stroke-miterlimit:4;stroke-dasharray:none;stroke-opacity:1"
         id="circle13075"
         transform="scale(1,-1)" />
      <circle
         cx="508.46893"
         cy="-245.79091"
         r="1.75"
         stroke="#f1f3f5"
         stroke-width="0.7 px"
         style="fill:none;stroke:#ff0000;stroke-width:0.7;stroke-linecap:square;stroke-miterlimit:4;stroke-dasharray:none;stroke-opacity:1"
         id="circle13077"
         transform="scale(1,-1)" />
      <circle
         cx="476.46893"
         cy="-277.79092"
         r="1.75"
         stroke="#f1f3f5"
         stroke-width="0.7 px"
         style="fill:none;stroke:#ff0000;stroke-width:0.7;stroke-linecap:square;stroke-miterlimit:4;stroke-dasharray:none;stroke-opacity:1"
         id="circle13079"
         transform="scale(1,-1)" />
      <circle
         cx="508.46893"
         cy="-277.79092"
         r="1.75"
         stroke="#f1f3f5"
         stroke-width="0.7 px"
         style="fill:none;stroke:#ff0000;stroke-width:0.7;stroke-linecap:square;stroke-miterlimit:4;stroke-dasharray:none;stroke-opacity:1"
         id="circle13081"
         transform="scale(1,-1)" />
      <path
         id="Part__Part2DObjectPython001_w0004"
         d="m 509.41323,257.41592 a 17.5,17.5 0 0 0 -33.8886,0 1.5,1.5 0 0 0 2.9047,0.75 14.5,14.5 0 0 1 28.0792,0 1.5,1.5 0 0 0 2.9047,-0.75"
         stroke="#f1f3f5"
         stroke-width="0.7 px"
         style="fill:none;fill-opacity:1;fill-rule:evenodd;stroke:#ff0000;stroke-width:0.7;stroke-linecap:square;stroke-miterlimit:4;stroke-dasharray:none;stroke-opacity:1" />
      <path
         id="Part__Part2DObjectPython001_w0005"
         d="m 503.56407,257.21949 a 12,12 0 0 0 -22.19024,0 1.5,1.5 0 1 0 2.7737,1.14286 9,9 0 0 1 16.6428,0 1.5,1.5 0 0 0 2.7737,-1.14286"
         stroke="#f1f3f5"
         stroke-width="0.7 px"
         style="fill:none;fill-opacity:1;fill-rule:evenodd;stroke:#ff0000;stroke-width:0.7;stroke-linecap:square;stroke-miterlimit:4;stroke-dasharray:none;stroke-opacity:1" />
      <path
         id="Part__Part2DObjectPython001_w0006"
         d="m 496.36893,256.59092 a 6.5,6.5 0 0 0 -7.8,0 1.5,1.5 0 0 0 1.8,2.4 3.5,3.5 0 0 1 4.2,0 1.5,1.5 0 1 0 1.8,-2.4"
         stroke="#f1f3f5"
         stroke-width="0.7 px"
         style="fill:none;fill-opacity:1;fill-rule:evenodd;stroke:#ff0000;stroke-width:0.7;stroke-linecap:square;stroke-miterlimit:4;stroke-dasharray:none;stroke-opacity:1" />
      <path
         id="Part__Part2DObjectPython001_w0007"
         d="m 488.56893,266.99092 a 6.5,6.5 0 0 0 7.8,0 1.5,1.5 0 0 0 -1.8,-2.4 3.5,3.5 0 0 1 -4.2,0 1.5,1.5 0 1 0 -1.8,2.4"
         stroke="#f1f3f5"
         stroke-width="0.7 px"
         style="fill:none;fill-opacity:1;fill-rule:evenodd;stroke:#ff0000;stroke-width:0.7;stroke-linecap:square;stroke-miterlimit:4;stroke-dasharray:none;stroke-opacity:1" />
      <path
         id="Part__Part2DObjectPython001_w0008"
         d="m 481.37379,266.36235 a 12,12 0 0 0 22.19024,0 1.5,1.5 0 0 0 -2.7737,-1.14286 9,9 0 0 1 -16.6428,0 1.5,1.5 0 1 0 -2.7737,1.14286"
         stroke="#f1f3f5"
         stroke-width="0.7 px"
         style="fill:none;fill-opacity:1;fill-rule:evenodd;stroke:#ff0000;stroke-width:0.7;stroke-linecap:square;stroke-miterlimit:4;stroke-dasharray:none;stroke-opacity:1" />
      <path
         id="Part__Part2DObjectPython001_w0009"
         d="m 475.52463,266.16592 a 17.5,17.5 0 0 0 33.8886,0 1.5,1.5 0 0 0 -2.9047,-0.75 14.5,14.5 0 0 1 -28.0792,0 1.5,1.5 0 0 0 -2.9047,0.75"
         stroke="#f1f3f5"
         stroke-width="0.7 px"
         style="fill:none;fill-opacity:1;fill-rule:evenodd;stroke:#ff0000;stroke-width:0.7;stroke-linecap:square;stroke-miterlimit:4;stroke-dasharray:none;stroke-opacity:1" />
      <circle
         cx="316.46893"
         cy="-245.79091"
         r="1.75"
         stroke="#f1f3f5"
         stroke-width="0.7 px"
         style="fill:none;stroke:#ff0000;stroke-width:0.7;stroke-linecap:square;stroke-miterlimit:4;stroke-dasharray:none;stroke-opacity:1"
         id="circle13089"
         transform="scale(1,-1)" />
      <circle
         cx="348.46893"
         cy="-245.79091"
         r="1.75"
         stroke="#f1f3f5"
         stroke-width="0.7 px"
         style="fill:none;stroke:#ff0000;stroke-width:0.7;stroke-linecap:square;stroke-miterlimit:4;stroke-dasharray:none;stroke-opacity:1"
         id="circle13091"
         transform="scale(1,-1)" />
      <circle
         cx="316.46893"
         cy="-277.79092"
         r="1.75"
         stroke="#f1f3f5"
         stroke-width="0.7 px"
         style="fill:none;stroke:#ff0000;stroke-width:0.7;stroke-linecap:square;stroke-miterlimit:4;stroke-dasharray:none;stroke-opacity:1"
         id="circle13093"
         transform="scale(1,-1)" />
      <circle
         cx="348.46893"
         cy="-277.79092"
         r="1.75"
         stroke="#f1f3f5"
         stroke-width="0.7 px"
         style="fill:none;stroke:#ff0000;stroke-width:0.7;stroke-linecap:square;stroke-miterlimit:4;stroke-dasharray:none;stroke-opacity:1"
         id="circle13095"
         transform="scale(1,-1)" />
      <path
         id="Part__Part2DObjectPython001_w0014"
         d="m 349.41323,257.41592 a 17.5,17.5 0 0 0 -33.8886,0 1.5,1.5 0 0 0 2.9047,0.75 14.5,14.5 0 0 1 28.0792,0 1.5,1.5 0 1 0 2.9047,-0.75"
         stroke="#f1f3f5"
         stroke-width="0.7 px"
         style="fill:none;fill-opacity:1;fill-rule:evenodd;stroke:#ff0000;stroke-width:0.7;stroke-linecap:square;stroke-miterlimit:4;stroke-dasharray:none;stroke-opacity:1" />
      <path
         id="Part__Part2DObjectPython001_w0015"
         d="m 343.56407,257.21949 a 12,12 0 0 0 -22.19024,0 1.5,1.5 0 0 0 2.7737,1.14286 9,9 0 0 1 16.6428,0 1.5,1.5 0 0 0 2.7737,-1.14286"
         stroke="#f1f3f5"
         stroke-width="0.7 px"
         style="fill:none;fill-opacity:1;fill-rule:evenodd;stroke:#ff0000;stroke-width:0.7;stroke-linecap:square;stroke-miterlimit:4;stroke-dasharray:none;stroke-opacity:1" />
      <path
         id="Part__Part2DObjectPython001_w0016"
         d="m 336.36893,256.59092 a 6.5,6.5 0 0 0 -7.8,0 1.5,1.5 0 1 0 1.8,2.4 3.5,3.5 0 0 1 4.2,0 1.5,1.5 0 1 0 1.8,-2.4"
         stroke="#f1f3f5"
         stroke-width="0.7 px"
         style="fill:none;fill-opacity:1;fill-rule:evenodd;stroke:#ff0000;stroke-width:0.7;stroke-linecap:square;stroke-miterlimit:4;stroke-dasharray:none;stroke-opacity:1" />
      <path
         id="Part__Part2DObjectPython001_w0017"
         d="m 328.56893,266.99092 a 6.5,6.5 0 0 0 7.8,0 1.5,1.5 0 0 0 -1.8,-2.4 3.5,3.5 0 0 1 -4.2,0 1.5,1.5 0 1 0 -1.8,2.4"
         stroke="#f1f3f5"
         stroke-width="0.7 px"
         style="fill:none;fill-opacity:1;fill-rule:evenodd;stroke:#ff0000;stroke-width:0.7;stroke-linecap:square;stroke-miterlimit:4;stroke-dasharray:none;stroke-opacity:1" />
      <path
         id="Part__Part2DObjectPython001_w0018"
         d="m 321.37379,266.36235 a 12,12 0 0 0 22.19024,0 1.5,1.5 0 0 0 -2.7737,-1.14286 9,9 0 0 1 -16.6428,0 1.5,1.5 0 0 0 -2.7737,1.14286"
         stroke="#f1f3f5"
         stroke-width="0.7 px"
         style="fill:none;fill-opacity:1;fill-rule:evenodd;stroke:#ff0000;stroke-width:0.7;stroke-linecap:square;stroke-miterlimit:4;stroke-dasharray:none;stroke-opacity:1" />
      <path
         id="Part__Part2DObjectPython001_w0019"
         d="m 315.52463,266.16592 a 17.5,17.5 0 0 0 33.8886,0 1.5,1.5 0 0 0 -2.9047,-0.75 14.5,14.5 0 0 1 -28.0792,0 1.5,1.5 0 1 0 -2.9047,0.75"
         stroke="#f1f3f5"
         stroke-width="0.7 px"
         style="fill:none;fill-opacity:1;fill-rule:evenodd;stroke:#ff0000;stroke-width:0.7;stroke-linecap:square;stroke-miterlimit:4;stroke-dasharray:none;stroke-opacity:1" />
      <path
         id="Part__Part2DObjectPython001_w0020"
         d="m 539.46893,239.54092 h -254 v 44.5 h 254 v -44.5"
         stroke="#f1f3f5"
         stroke-width="0.7 px"
         style="fill:none;fill-opacity:1;fill-rule:evenodd;stroke:#0000ff;stroke-width:0.7;stroke-linecap:square;stroke-miterlimit:4;stroke-dasharray:none;stroke-opacity:1" />
      <circle
         cx="294.20642"
         cy="-245.91591"
         r="3.25"
         stroke="#f1f3f5"
         stroke-width="0.7 px"
         style="fill:none;stroke:#ff0000;stroke-width:0.7;stroke-linecap:square;stroke-miterlimit:4;stroke-dasharray:none;stroke-opacity:1"
         id="circle13104"
         transform="scale(1,-1)" />
      <circle
         cx="294.20642"
         cy="-277.66592"
         r="3.25"
         stroke="#f1f3f5"
         stroke-width="0.7 px"
         style="fill:none;stroke:#ff0000;stroke-width:0.7;stroke-linecap:square;stroke-miterlimit:4;stroke-dasharray:none;stroke-opacity:1"
         id="circle13106"
         transform="scale(1,-1)" />
      <circle
         cx="530.73138"
         cy="-245.91591"
         r="3.25"
         stroke="#f1f3f5"
         stroke-width="0.7 px"
         style="fill:none;stroke:#ff0000;stroke-width:0.7;stroke-linecap:square;stroke-miterlimit:4;stroke-dasharray:none;stroke-opacity:1"
         id="circle13108"
         transform="scale(1,-1)" />
      <circle
         cx="530.73138"
         cy="-277.66592"
         r="3.25"
         stroke="#f1f3f5"
         stroke-width="0.7 px"
         style="fill:none;stroke:#ff0000;stroke-width:0.7;stroke-linecap:square;stroke-miterlimit:4;stroke-dasharray:none;stroke-opacity:1"
         id="circle13110"
         transform="scale(1,-1)" />
    </g>
  </g>
</svg>
